<?xml version="1.0" encoding="UTF-8"?>
<!-- Created with Inkscape (http://www.inkscape.org/) -->
<svg width="131.64mm" height="131.64mm" version="1.1" viewBox="0 0 131.64 131.64" xmlns="http://www.w3.org/2000/svg">
 <g transform="translate(-39.282 -82.681)">
  <path d="m104.3 82.814-3.1683 5.178-1.9265 5.2369-2.7213 0.35812-3.2158-4.5594-4.4002-4.1817-1.5415 0.4129-1.7198 5.8214-0.50591 5.5568-2.5358 1.0506-4.2866-3.5719-5.3325-2.9001-1.3823 0.79788-0.15451 6.0684 0.94981 5.4979-2.1771 1.6712-5.0653-2.3404-5.9014-1.4216-1.1286 1.1286 1.4216 5.9014 2.3404 5.0653-1.6712 2.1771-5.4979-0.94981-6.0684 0.15451-0.79788 1.3824 2.9001 5.3325 3.5719 4.2866-1.0506 2.5358-5.5568 0.50591-5.8214 1.7198-0.4129 1.5415 4.1817 4.4002 4.5594 3.2158-0.35812 2.7213-5.2369 1.9265-5.178 3.1683v1.5958l5.178 3.1678 5.2369 1.9265 0.35812 2.7218-4.5594 3.2158-4.1817 4.4002 0.4129 1.5415 5.8214 1.7198 5.5568 0.50539 1.0506 2.5363-3.5719 4.2866-2.9001 5.3325 0.79788 1.3824 6.0684 0.15451 5.4979-0.95033 1.6712 2.1776-2.3404 5.0653-1.4216 5.9014 1.1286 1.1286 5.9014-1.4216 5.0653-2.3404 2.1771 1.6707-0.94981 5.4984 0.15451 6.0684 1.3823 0.79789 5.3325-2.9001 4.2866-3.5719 2.5358 1.0506 0.50591 5.5562 1.7198 5.8219 1.5415 0.41289 4.4002-4.1816 3.2158-4.5594 2.7213 0.35812 1.9265 5.2364 3.1683 5.1785h1.5958l3.1678-5.1785 1.9265-5.2364 2.7218-0.35812 3.2158 4.5594 4.4002 4.1816 1.5415-0.41289 1.7198-5.8219 0.50539-5.5562 2.5363-1.0506 4.2866 3.5719 5.3325 2.9001 1.3824-0.79789 0.15451-6.0684-0.95033-5.4984 2.1776-1.6707 5.0653 2.3404 5.9014 1.4216 1.1286-1.1286-1.4216-5.9014-2.3404-5.0653 1.6707-2.1776 5.4984 0.95033 6.0684-0.15451 0.79789-1.3824-2.9001-5.3325-3.5719-4.2866 1.0506-2.5363 5.5562-0.50539 5.8219-1.7198 0.41289-1.5415-4.1816-4.4002-4.5594-3.2158 0.35812-2.7218 5.2364-1.9265 5.1785-3.1678v-1.5958l-5.1785-3.1683-5.2364-1.9265-0.35812-2.7213 4.5594-3.2158 4.1816-4.4002-0.41289-1.5415-5.8219-1.7198-5.5562-0.50591-1.0506-2.5358 3.5719-4.2866 2.9001-5.3325-0.79789-1.3824-6.0684-0.15451-5.4984 0.94981-1.6707-2.1771 2.3404-5.0653 1.4216-5.9014-1.1286-1.1286-5.9014 1.4216-5.0653 2.3404-2.1776-1.6712 0.95033-5.4979-0.15451-6.0684-1.3824-0.79788-5.3325 2.9001-4.2866 3.5719-2.5363-1.0506-0.50539-5.5568-1.7198-5.8214-1.5415-0.4129-4.4002 4.1817-3.2158 4.5594-2.7218-0.35812-1.9265-5.2369-3.1678-5.178h-1.5958zm6.6745 18.435a47.625 47.625 0 0 1 41.274 41.375h-31.766a16.278 18.353 0 0 0-9.508-11.19v-30.185zm-11.753 0.14108v30.044a16.278 18.353 0 0 0-9.5079 11.19h-31.749a47.625 47.625 0 0 1 41.257-41.234zm5.8766 4.5077a3.1799 2.8982 0 0 1 3.1796 2.8985 3.1799 2.8982 0 0 1-3.1796 2.898 3.1799 2.8982 0 0 1-3.1802-2.898 3.1799 2.8982 0 0 1 3.1802-2.8985zm0 14.154a3.1799 2.8982 0 0 1 3.1796 2.898 3.1799 2.8982 0 0 1-3.1796 2.8985 3.1799 2.8982 0 0 1-3.1802-2.8985 3.1799 2.8982 0 0 1 3.1802-2.898zm0 15.824a11.237 12.625 0 0 1 11.237 12.625 11.237 12.625 0 0 1-11.237 12.625 11.237 12.625 0 0 1-11.237-12.625 11.237 12.625 0 0 1 11.237-12.625zm-39.102 9.4449a2.8982 3.1799 0 0 1 2.898 3.1802 2.8982 3.1799 0 0 1-2.898 3.1796 2.8982 3.1799 0 0 1-2.8985-3.1796 2.8982 3.1799 0 0 1 2.8985-3.1802zm14.153 0a2.8982 3.1799 0 0 1 2.8985 3.1802 2.8982 3.1799 0 0 1-2.8985 3.1796 2.8982 3.1799 0 0 1-2.898-3.1796 2.8982 3.1799 0 0 1 2.898-3.1802zm47.899 0a2.8982 3.1799 0 0 1 2.898 3.1802 2.8982 3.1799 0 0 1-2.898 3.1796 2.8982 3.1799 0 0 1-2.8985-3.1796 2.8982 3.1799 0 0 1 2.8985-3.1802zm14.153 0a2.8982 3.1799 0 0 1 2.8985 3.1802 2.8982 3.1799 0 0 1-2.8985 3.1796 2.8982 3.1799 0 0 1-2.898-3.1796 2.8982 3.1799 0 0 1 2.898-3.1802zm-84.214 9.0568h31.726a16.278 18.353 0 0 0 9.5079 11.19v30.044a47.625 47.625 0 0 1-41.234-41.234zm62.495 0h31.726a47.625 47.625 0 0 1-41.234 41.234v-30.044a16.278 18.353 0 0 0 9.508-11.19zm-15.385 18.061a3.1799 2.8982 0 0 1 3.1796 2.8985 3.1799 2.8982 0 0 1-3.1796 2.898 3.1799 2.8982 0 0 1-3.1802-2.898 3.1799 2.8982 0 0 1 3.1802-2.8985zm0 14.154a3.1799 2.8982 0 0 1 3.1796 2.898 3.1799 2.8982 0 0 1-3.1796 2.8985 3.1799 2.8982 0 0 1-3.1802-2.8985 3.1799 2.8982 0 0 1 3.1802-2.898z" fill="#2f0080" stroke="#000"/>
 </g>
</svg>
